<svg width="30" height="27" viewBox="0 0 30 27" fill="none" xmlns="http://www.w3.org/2000/svg">
<path d="M26.5333 2.01659C26.2 1.03325 25.2667 0.333252 24.1667 0.333252H5.83333C4.73333 0.333252 3.81667 1.03325 3.46667 2.01659L0 11.9999V25.3333C0 26.2499 0.75 26.9999 1.66667 26.9999H3.33333C4.25 26.9999 5 26.2499 5 25.3333V23.6666H25V25.3333C25 26.2499 25.75 26.9999 26.6667 26.9999H28.3333C29.25 26.9999 30 26.2499 30 25.3333V11.9999L26.5333 2.01659ZM5.83333 18.6666C4.45 18.6666 3.33333 17.5499 3.33333 16.1666C3.33333 14.7833 4.45 13.6666 5.83333 13.6666C7.21667 13.6666 8.33333 14.7833 8.33333 16.1666C8.33333 17.5499 7.21667 18.6666 5.83333 18.6666ZM24.1667 18.6666C22.7833 18.6666 21.6667 17.5499 21.6667 16.1666C21.6667 14.7833 22.7833 13.6666 24.1667 13.6666C25.55 13.6666 26.6667 14.7833 26.6667 16.1666C26.6667 17.5499 25.55 18.6666 24.1667 18.6666ZM3.33333 10.3333L5.83333 2.83325H24.1667L26.6667 10.3333H3.33333Z" fill="#3C4750"/>
</svg>
