<svg width="40" height="40" viewBox="0 0 40 40" fill="none" xmlns="http://www.w3.org/2000/svg">
<g clip-path="url(#clip0_464_35280)">
<path d="M31.5333 10.0166C31.2 9.03325 30.2667 8.33325 29.1667 8.33325H10.8333C9.73333 8.33325 8.81667 9.03325 8.46667 10.0166L5 19.9999V33.3333C5 34.2499 5.75 34.9999 6.66667 34.9999H8.33333C9.25 34.9999 10 34.2499 10 33.3333V31.6666H30V33.3333C30 34.2499 30.75 34.9999 31.6667 34.9999H33.3333C34.25 34.9999 35 34.2499 35 33.3333V19.9999L31.5333 10.0166ZM11.4167 11.6666H28.5667L30.3667 16.8499H9.61667L11.4167 11.6666ZM31.6667 28.3333H8.33333V19.9999H31.6667V28.3333Z" fill="#3C4750"/>
<path d="M12.5 26.6667C13.8807 26.6667 15 25.5475 15 24.1667C15 22.786 13.8807 21.6667 12.5 21.6667C11.1193 21.6667 10 22.786 10 24.1667C10 25.5475 11.1193 26.6667 12.5 26.6667Z" fill="#3C4750"/>
<path d="M27.5 26.6667C28.8807 26.6667 30 25.5475 30 24.1667C30 22.786 28.8807 21.6667 27.5 21.6667C26.1193 21.6667 25 22.786 25 24.1667C25 25.5475 26.1193 26.6667 27.5 26.6667Z" fill="#3C4750"/>
</g>
<defs>
<clipPath id="clip0_464_35280">
<rect width="40" height="40" fill="white"/>
</clipPath>
</defs>
</svg>
