<svg width="12" height="14" viewBox="0 0 12 14" fill="none" xmlns="http://www.w3.org/2000/svg">
<path fill-rule="evenodd" clip-rule="evenodd" d="M3.18793 3.25C3.18793 2.50408 3.48424 1.78871 4.01169 1.26126C4.53913 0.733816 5.25451 0.4375 6.00043 0.4375C6.74635 0.4375 7.46172 0.733816 7.98916 1.26126C8.51661 1.78871 8.81293 2.50408 8.81293 3.25C8.81293 3.99592 8.51661 4.71129 7.98916 5.23874C7.46172 5.76618 6.74635 6.0625 6.00043 6.0625C5.25451 6.0625 4.53913 5.76618 4.01169 5.23874C3.48424 4.71129 3.18793 3.99592 3.18793 3.25ZM0.844801 12.0656C0.865876 10.7122 1.41833 9.42129 2.3829 8.47161C3.34748 7.52194 4.64681 6.98966 6.00043 6.98966C7.35404 6.98966 8.65338 7.52194 9.61795 8.47161C10.5825 9.42129 11.135 10.7122 11.1561 12.0656C11.1577 12.1567 11.1327 12.2464 11.0842 12.3235C11.0357 12.4007 10.9657 12.462 10.8829 12.5C9.35116 13.2023 7.68553 13.5648 6.00043 13.5625C4.25918 13.5625 2.6048 13.1825 1.11793 12.5C1.0351 12.462 0.965161 12.4007 0.916653 12.3235C0.868144 12.2464 0.843175 12.1567 0.844801 12.0656Z" fill="#1B1F26" fill-opacity="0.72"/>
</svg>
