<svg width="16" height="16" viewBox="0 0 16 16" fill="none" xmlns="http://www.w3.org/2000/svg">
<path d="M13.334 1.33337H2.66732C1.93398 1.33337 1.34065 1.93337 1.34065 2.66671L1.33398 14.6667L4.00065 12H13.334C14.0673 12 14.6673 11.4 14.6673 10.6667V2.66671C14.6673 1.93337 14.0673 1.33337 13.334 1.33337ZM13.334 10.6667H3.44732L3.05398 11.06L2.66732 11.4467V2.66671H13.334V10.6667ZM7.00065 9.33337H12.0007V8.00004H8.33398L7.00065 9.33337ZM9.57398 5.42004C9.70732 5.28671 9.70732 5.08004 9.57398 4.94671L8.39398 3.76671C8.26065 3.63337 8.05398 3.63337 7.92065 3.76671L4.00065 7.68671V9.33337H5.64732L9.57398 5.42004Z" fill="#23292E"/>
</svg>
